<svg width="48" height="48" viewBox="0 0 48 48" fill="none" xmlns="http://www.w3.org/2000/svg">
<rect width="48" height="48" fill="#323238"/>
<rect x="8" y="9" width="33" height="30" fill="white"/>
<path d="M39.765 7.00031H9.23465C8.5527 7.00031 8 7.553 8 8.23495V38.7652C8 39.4473 8.5527 39.9999 9.23465 39.9999H39.7654C40.4474 39.9999 41 39.4472 41 38.7652V8.23495C40.9997 7.553 40.4469 7.00031 39.765 7.00031ZM16.7673 34.1548C16.7673 34.6095 16.3989 34.9777 15.9442 34.9777H12.6489C12.1946 34.9777 11.8258 34.6094 11.8258 34.1548V19.7517C11.8258 19.2969 12.1946 18.9286 12.6489 18.9286H15.9442C16.3989 18.9286 16.7673 19.2969 16.7673 19.7517V34.1548ZM16.7673 15.5728C16.7673 16.0276 16.3989 16.3959 15.9442 16.3959H12.6489C12.1946 16.3959 11.8258 16.0275 11.8258 15.5728V12.6467C11.8258 12.1919 12.1946 11.8236 12.6489 11.8236H15.9442C16.3989 11.8236 16.7673 12.1919 16.7673 12.6467V15.5728ZM37.1739 34.1548C37.1739 34.6095 36.8052 34.9777 36.3508 34.9777H33.0555C32.6007 34.9777 32.2324 34.6094 32.2324 34.1548V28.0733C32.2324 26.0567 32.1271 24.7524 31.9155 24.1603C31.7044 23.568 31.3616 23.1079 30.8867 22.78C30.4118 22.4515 29.8404 22.2877 29.1722 22.2877C28.3162 22.2877 27.5482 22.5223 26.8683 22.991C26.1884 23.4602 25.7225 24.0812 25.4702 24.8549C25.2184 25.6287 25.0924 27.0592 25.0924 29.1457V34.1548C25.0924 34.6095 24.7237 34.9777 24.2693 34.9777H20.9741C20.5197 34.9777 20.151 34.6094 20.151 34.1548V19.7517C20.151 19.2969 20.5197 18.9286 20.9741 18.9286H23.9175C24.3723 18.9286 24.7406 19.2969 24.7406 19.7517V20.8489C24.7406 21.3037 24.9633 21.3769 25.269 21.0407C26.8066 19.3513 28.682 18.5064 30.8957 18.5064C31.9859 18.5064 32.9823 18.7027 33.8852 19.0953C34.7878 19.4879 35.4709 19.9892 35.9339 20.5987C36.3969 21.2081 36.7196 21.9 36.9011 22.6737C37.0826 23.4474 37.1739 24.5553 37.1739 25.9974V34.1548H37.1739Z" fill="#323238"/>
</svg>
